<svg xmlns="http://www.w3.org/2000/svg" xmlns:xlink="http://www.w3.org/1999/xlink" version="1.1" id="Layer_1" x="0px" y="0px" width="100px" height="100px" viewBox="0 0 100 100" enable-background="new 0 0 100 100" xml:space="preserve">
<path d="M59.67,74.223c-19.503,0-35.37-15.866-35.37-35.368c0-19.502,15.867-35.369,35.37-35.369  c19.5,0,35.367,15.866,35.367,35.369C95.037,58.356,79.17,74.223,59.67,74.223z M59.67,9.861c-15.988,0-28.995,13.006-28.995,28.993  c0,15.987,13.007,28.993,28.995,28.993c15.985,0,28.991-13.006,28.991-28.993C88.661,22.868,75.655,9.861,59.67,9.861z"/>
<rect x="15.779" y="61.361" transform="matrix(0.7072 0.707 -0.707 0.7072 62.3881 8.0674)" width="11.351" height="35.984"/>
</svg>