<svg xmlns="http://www.w3.org/2000/svg" xmlns:xlink="http://www.w3.org/1999/xlink" version="1.1" id="Calque_1" x="0px" y="0px" width="100px" height="100px" viewBox="0 0 100 100" enable-background="new 0 0 100 100" xml:space="preserve">
<path d="M66.442,48.889c0,17.488-14.177,31.667-31.666,31.667S3.109,66.377,3.109,48.889c0-17.489,14.178-31.667,31.667-31.667  S66.442,31.399,66.442,48.889z M34.978,26.141c-12.564,0-22.749,10.185-22.749,22.748s10.185,22.748,22.749,22.748  c12.563,0,22.747-10.185,22.747-22.748S47.541,26.141,34.978,26.141z"/>
<path d="M98.109,48.889c0,17.488-14.178,31.667-31.667,31.667S34.776,66.377,34.776,48.889c0-17.489,14.177-31.667,31.666-31.667  S98.109,31.399,98.109,48.889z M66.644,26.141c-12.563,0-22.748,10.185-22.748,22.748S54.08,71.636,66.644,71.636  c12.562,0,22.747-10.185,22.747-22.748S79.206,26.141,66.644,26.141z"/>
</svg>