<svg xmlns="http://www.w3.org/2000/svg" xmlns:xlink="http://www.w3.org/1999/xlink" version="1.1" x="0px" y="0px" width="100px" height="100px" viewBox="0 0 100 100" enable-background="new 0 0 100 100" xml:space="preserve">
<g id="Captions">
</g>
<g id="Your_Icon" display="none">
	<path display="inline" d="M95.438,80.064H33.325V68.491l12.114-5.922c0.251-1.752,0.938-4.743,2.756-5.828v-3.81   c-0.067-0.41-0.265-1.121-0.566-1.498c-0.932-1.165-2.117-4.371-2.561-6.852c-0.423-0.493-1.016-1.379-1.311-2.703   c-0.035-0.159-0.081-0.349-0.132-0.562c-0.601-2.493-1.053-4.842,0.001-6.182c0.183-0.232,0.401-0.421,0.646-0.564   c-0.357-3.267-0.914-10.742,1.024-13.812c2.468-3.907,8.334-8.259,12.807-8.259h2.645c4.473,0,10.34,4.353,12.808,8.259   c1.938,3.07,1.382,10.545,1.024,13.812c0.245,0.143,0.463,0.333,0.646,0.564c1.055,1.339,0.602,3.688,0,6.182   c-0.052,0.213-0.098,0.403-0.133,0.561c-0.294,1.324-0.886,2.209-1.309,2.703c-0.444,2.486-1.631,5.693-2.562,6.854   c-0.298,0.373-0.495,1.081-0.563,1.497v3.808c1.796,1.073,2.487,4.006,2.745,5.767c2.253,0.929,8.825,3.633,14.924,6.101   c8.072,3.27,9.745,8.237,9.812,8.447c0.168,0.511,0.177,1.309-0.312,1.985C97.488,79.507,96.799,80.064,95.438,80.064z    M36.325,77.064h58.491c-0.813-1.308-2.874-3.756-7.615-5.676c-7.518-3.043-15.754-6.443-15.754-6.443l-0.835-0.345l-0.086-0.901   c-0.205-2.149-0.942-4.151-1.416-4.377h-1.5l0.048-1.49l0.012-5.194c0.023-0.189,0.259-1.885,1.21-3.077   c0.488-0.609,1.673-3.515,2.015-5.896l0.084-0.586l0.462-0.371l0,0c-0.003,0,0.498-0.462,0.725-1.481   c0.038-0.173,0.088-0.381,0.145-0.614c0.364-1.512,0.553-2.588,0.562-3.215l-1.713,0.49l0.271-2.27   c0.557-3.993,0.938-11.124-0.41-13.259c-1.963-3.107-6.983-6.86-10.271-6.86h-2.645c-3.288,0-8.307,3.753-10.271,6.861   c-1.348,2.135-0.967,9.265-0.41,13.258l0.319,2.283l-1.761-0.503c0.009,0.626,0.197,1.703,0.561,3.215   c0.056,0.233,0.106,0.441,0.145,0.613c0.228,1.024,0.733,1.485,0.755,1.505l0.407,0.364l0.11,0.569   c0.34,2.376,1.525,5.284,2.013,5.894c0.953,1.192,1.188,2.888,1.212,3.078l0.012,0.186v6.509h-1.5   c-0.426,0.216-1.164,2.219-1.37,4.368l-0.08,0.836l-11.919,5.828V77.064z"/>
	<path display="inline" d="M21.687,90.104H11.403v-10.06H1.343V69.76h10.06V59.699h10.284V69.76h10.06v10.284h-10.06V90.104z    M14.403,87.104h4.284v-10.06h10.06V72.76h-10.06V62.699h-4.284V72.76H4.343v4.284h10.06V87.104z"/>
</g>
<g id="Layer_3" display="none">
	<g display="inline">
		<path d="M87.762,12.238c-4.599-4.599-10.713-7.132-17.216-7.132c-4.055,0-7.958,0.985-11.438,2.842l-0.005-0.008    c-9.607,5.113-19.633,12.762-28.993,22.12c-9.107,9.107-16.576,18.827-21.679,28.183c-5.538,9.34-4.323,21.604,3.7,29.628    c4.6,4.598,10.713,7.13,17.216,7.13c6.502,0,12.616-2.532,17.216-7.13c6.831-6.835,8.716-16.746,5.713-25.309    c-0.456-2.805,0.457-5.666,2.468-7.677c1.988-1.987,4.729-2.899,7.519-2.495l0.004-0.024c2.619,0.944,5.409,1.438,8.276,1.438    c6.503,0,12.617-2.532,17.217-7.131C97.255,37.179,97.255,21.732,87.762,12.238z M43.736,85.042    C39.893,88.884,34.783,91,29.349,91c-5.435,0-10.544-2.116-14.388-5.958c-6.457-6.459-7.657-16.212-3.604-23.896l0.039,0.021    c0.188-0.355,0.386-0.713,0.581-1.07c0.828-1.362,1.807-2.657,2.983-3.833c3.844-3.844,8.954-5.96,14.388-5.96    s10.544,2.117,14.389,5.96C51.667,64.196,51.667,77.107,43.736,85.042z M51.918,52.056c-1.26,1.261-2.205,2.759-2.842,4.373    c-0.753-1.044-1.572-2.056-2.51-2.994c-4.6-4.6-10.714-7.132-17.217-7.132c-3.438,0-6.763,0.714-9.817,2.061    c3.863-5.226,8.374-10.442,13.407-15.476c5.004-5.004,10.195-9.495,15.397-13.348c-3.979,8.945-2.332,19.807,4.993,27.131    c0.936,0.936,1.937,1.781,2.987,2.541C54.688,49.85,53.178,50.797,51.918,52.056z M84.934,43.843    c-3.844,3.843-8.954,5.96-14.389,5.96s-10.544-2.117-14.388-5.959c-7.933-7.933-7.933-20.843,0-28.777    c3.844-3.843,8.954-5.96,14.389-5.96s10.544,2.117,14.388,5.96C92.866,23,92.866,35.91,84.934,43.843z"/>
		<path d="M36,56H24v9h-9v12h9v9h12v-9h9V65h-9V56z M28,60h4v5h-4V60z M32,69v4h-4v-4H32z M19,73v-4h5v4H19z M32,82h-4v-5h4V82z     M41,69v4h-5v-4H41z"/>
		<path d="M78.001,31.523c-1.438,0-2.792,0.56-3.812,1.579c-2.098,2.101-2.098,5.519,0.002,7.621    c1.019,1.018,2.372,1.579,3.812,1.579s2.793-0.562,3.81-1.58c1.017-1.018,1.577-2.372,1.576-3.811c0-1.44-0.562-2.793-1.577-3.807    C80.795,32.084,79.441,31.523,78.001,31.523z M78.982,37.894c-0.524,0.527-1.44,0.523-1.963,0    c-0.541-0.542-0.541-1.424-0.002-1.964c0.263-0.262,0.612-0.407,0.983-0.407c0.37,0,0.718,0.144,0.981,0.409    c0.262,0.261,0.406,0.609,0.406,0.979C79.389,37.282,79.245,37.631,78.982,37.894z"/>
		<path d="M64.213,17.735c-1.438,0-2.79,0.56-3.809,1.577c-1.018,1.018-1.578,2.371-1.578,3.811c0,1.44,0.561,2.793,1.578,3.81    c1.019,1.019,2.372,1.58,3.811,1.58c1.439,0,2.793-0.562,3.808-1.578c1.02-1.018,1.581-2.372,1.581-3.813    c-0.001-1.44-0.562-2.792-1.578-3.804C67.008,18.297,65.653,17.735,64.213,17.735z M65.193,24.106    c-0.524,0.525-1.434,0.524-1.961-0.002c-0.263-0.262-0.406-0.61-0.406-0.981c0-0.371,0.145-0.72,0.405-0.981    c0.263-0.262,0.611-0.406,0.981-0.406s0.719,0.145,0.985,0.412c0.261,0.26,0.405,0.607,0.405,0.976    C65.604,23.493,65.459,23.841,65.193,24.106z"/>
		<path d="M64.215,31.523c-1.438,0-2.792,0.56-3.81,1.576c-1.02,1.018-1.58,2.372-1.58,3.812c0,1.439,0.561,2.792,1.579,3.812    c1.019,1.018,2.371,1.578,3.81,1.578c1.44,0,2.794-0.562,3.809-1.579c1.019-1.018,1.58-2.371,1.581-3.811    c0.001-1.439-0.559-2.792-1.577-3.811C67.007,32.083,65.653,31.523,64.215,31.523z M65.194,37.894    c-0.525,0.524-1.438,0.523-1.961,0.001c-0.263-0.264-0.408-0.614-0.408-0.985c0-0.371,0.145-0.719,0.406-0.98    c0.263-0.262,0.612-0.407,0.983-0.407s0.722,0.145,0.984,0.407c0.261,0.261,0.404,0.609,0.404,0.979    C65.604,37.281,65.459,37.63,65.194,37.894z"/>
		<path d="M78,17.735c-1.438,0-2.791,0.56-3.811,1.578c-2.097,2.1-2.098,5.518,0.001,7.622c1.019,1.018,2.371,1.578,3.811,1.578    c1.44,0,2.795-0.562,3.811-1.58c1.018-1.017,1.577-2.37,1.578-3.809c0-1.439-0.56-2.792-1.575-3.808    C80.796,18.297,79.441,17.735,78,17.735z M78.981,24.106c-0.523,0.524-1.439,0.523-1.961,0.001    c-0.542-0.543-0.542-1.426-0.003-1.966c0.263-0.262,0.611-0.406,0.982-0.406c0.372,0,0.722,0.145,0.985,0.409    c0.261,0.261,0.404,0.608,0.404,0.979C79.39,23.494,79.245,23.842,78.981,24.106z"/>
	</g>
</g>
<g id="Layer_4" display="none">
	<g display="inline">
		<g>
			<path d="M23.963,85.631h-6.837V65.844h6.837V85.631z M20.126,82.631h0.837V68.844h-0.837V82.631z"/>
			<path d="M30.029,79.264H10.5v-6.838h19.529V79.264z M13.5,76.264h13.529v-0.838H13.5V76.264z"/>
		</g>
		<g>
			<path d="M72.85,6.151l-9.817-3.026l-1.987,6.447l9.817,3.026L72.85,6.151z M68.88,8.847l-4.085-1.259l0.22-0.713L69.1,8.134     L68.88,8.847z"/>
			<path d="M52.86,9.572l-1.986-6.447l-9.817,3.026l1.986,6.447L52.86,9.572z M48.891,6.875l0.22,0.713l-4.084,1.259l-0.22-0.713     L48.891,6.875z"/>
			<g>
				<path d="M20.543,59.217c-8.859,0.002-16.068,7.211-16.068,16.07c0,8.86,7.209,16.068,16.069,16.068s16.069-7.208,16.069-16.068      C36.613,66.426,29.404,59.217,20.543,59.217z M20.544,88.355c-7.206,0-13.069-5.862-13.069-13.068      c0-7.205,5.863-13.068,13.069-13.07c7.206,0,13.069,5.863,13.07,13.07C33.613,82.493,27.75,88.355,20.544,88.355z"/>
				<path d="M82.554,28.79c0.05-0.166,0.099-0.332,0.149-0.503c2.759-9.325-3.364-17.46-8.97-19.187l-0.883,2.867      c4.166,1.284,8.821,7.559,7.161,14.693c-6.394-4.916-14.389-7.849-23.059-7.849s-16.665,2.932-23.058,7.848      c-1.661-7.134,2.995-13.409,7.162-14.692L40.174,9.1c-5.606,1.727-11.73,9.862-8.97,19.187c0.051,0.171,0.1,0.476,0.149,0.643      C23.793,35.864,19.044,46,19.044,57h3c0-10,3.927-18.517,10.265-24.84c1.588,5.374,2.59,8.749,6.132,21.062      c1.866,6.488,6.267,11.39,11.759,13.643c-4.73,2.453-7.951,7.369-7.951,13.055C42.249,88.041,49,94.639,57,94.64v-0.005      c21,0,37.887-17.011,37.887-37.914C94.887,45.678,90.114,35.725,82.554,28.79z M41.324,52.323      c-3.84-13.35-4.697-16.284-6.548-22.542c6.035-4.977,13.763-7.97,22.178-7.97c8.415,0,16.144,2.993,22.179,7.97      c-1.859,6.283-2.692,9.216-6.526,22.542C70.221,60.615,65,65.182,57,65.182v-0.006c0,0-0.062,0.003-0.084,0.003      C49.916,65.148,43.496,59.873,41.324,52.323z M56.954,91.631c-6.467,0-11.729-5.262-11.729-11.729      c0-6.445,5.229-11.689,11.667-11.724c0.021,0,0.041,0.003,0.062,0.003c9.018,0,15.765-5.478,18.512-15.028      c3.537-12.296,4.538-15.737,6.133-21.133c6.338,6.324,10.266,15.062,10.266,24.701C91.863,75.971,76.203,91.631,56.954,91.631z"/>
			</g>
		</g>
	</g>
</g>
<g id="Layer_5" display="none">
	<g display="inline">
		<path d="M87.101,15.071l-7.432,7.427l6.914,6.915l7.432-7.43L87.101,15.071z M85.327,22.499l1.773-1.772l1.256,1.256l-1.773,1.773    L85.327,22.499z"/>
		<path d="M77.999,24.172L69,33.17v-4.73L48.709,8H8v82h61V47h-0.172l16.001-16L77.999,24.172z M50,15.251L61.898,27H50V15.251z     M65,86H12V12h34v19h19v6.17L44.861,57.307l6.828,6.831L65,50.828V86z M51.691,58.479l-1.173-1.173l27.48-27.478L79.171,31    L51.691,58.479z"/>
		<polygon points="31.412,77.189 50.771,65.434 43.706,58.372   "/>
	</g>
</g>
<g id="Layer_6">
	<g>
		<path d="M98.34,78.859c0,0-1.565-4.886-9.782-8.213c-8.217-3.326-17.322-7.04-17.322-7.04S71,57.348,68,57.348V51.87    c0,0,0.301-1.566,1.084-2.544c0.781-0.978,2.204-4.5,2.596-7.239c0,0,1.004-0.783,1.396-2.543c0.392-1.761,1.97-7.043-0.771-6.261    c0,0,1.669-12.091-0.679-15.808C69.278,13.758,63.319,9,59.016,9h-2.894c-4.304,0-10.271,4.758-12.618,8.475    c-2.347,3.717-0.686,15.705-0.686,15.705c-2.739-0.782-1.174,4.552-0.783,6.313c0.392,1.76,1.37,2.569,1.37,2.569    c0.391,2.739,1.798,6.274,2.58,7.251C46.768,50.291,47,51.87,47,51.87v5.478c-3,0-3.167,6.261-3.167,6.261    s-9.103,3.717-17.319,7.043C25.218,71.176,24,71.739,23,72.316V73h11v7c23,0,61.684,0,62.948,0    C98.72,80,98.34,78.859,98.34,78.859z"/>
		<polygon points="21,64 13,64 13,75 2,75 2,83 13,83 13,94 21,94 21,83 32,83 32,75 21,75   "/>
	</g>
</g>
</svg>