<svg xmlns:x="http://ns.adobe.com/Extensibility/1.0/" xmlns:i="http://ns.adobe.com/AdobeIllustrator/10.0/" xmlns:graph="http://ns.adobe.com/Graphs/1.0/" xmlns="http://www.w3.org/2000/svg" xmlns:xlink="http://www.w3.org/1999/xlink" xmlns:a="http://ns.adobe.com/AdobeSVGViewerExtensions/3.0/" version="1.0" id="Layer_1" x="0px" y="0px" width="100px" height="100px" viewBox="0 0 100 100" enable-background="new 0 0 100 100" xml:space="preserve">
<path d="M90.138,41.979c2.396,1.851,3.923,3.72,4.463,4.457c3.034,4.171-0.576,5.126,2.41,8.725  c2.977,3.587,2.246,10.122,2.246,12.631c0,1.591-1.495,1.317-1.592,0.405c0.049-0.439,0.075-0.886,0.075-1.34  c0-6.55-5.309-11.855-11.857-11.855c-6.232,0-10.807,3.569-12.484,10.814c-0.085,0.373-0.164,0.749-0.232,1.135  c-0.226,1.245-0.355,3.056-0.355,3.056l-45.095,0.23c0.159-0.81,0.243-1.648,0.243-2.507c0-7.147-5.796-12.943-12.945-12.943  c-7.091,0-12.853,5.702-12.943,12.774c-1.145-0.202-1.478-1.275-1.138-6.994C1.251,55.2,3.59,52.95,3.59,52.95  s-0.01-1.218,0.016-3.083c0.043-3.135,0.178-8.098,0.597-12.183c0.031-0.294,0.064-0.583,0.101-0.868  c0.777-6.064,2.878-9.653,3.486-11.692c0.458-1.534-0.494-2.882-1.064-3.518c-0.405-0.432,0.114-0.583,0.177-0.605  c0.949-0.312,3.069-0.65,8.11-1.208c1.948-0.216,4.224-0.503,6.952-0.761c5.41-0.509,12.599-0.892,22.542-0.339  c13.353,0.743,21.778,6.285,30.725,12.45c4.015,2.766,7.789,5.483,10.95,7.835c-6.01-1.572-10.527-5.58-14.415-8.258  c-8.93-6.151-15.841-9.959-27.336-10.657c-10.49-0.636-17.894-0.146-23.371,0.422c-2.875,4.649-6.383,10.536-7.013,11.418  c-1.021,1.43-1.795,3.843-8.337,4.746c-0.053,0.382-0.1,0.772-0.142,1.175C5.167,41.73,5.031,46.658,4.986,49.94  c7.43,0.441,15.453,1.784,19.31,5.26c3.813,3.44,3.975,8.398,6.103,9.909c2.534,1.801,6.388,2.21,20.388,2.413  c14.001,0.204,20.259,0.897,20.461-1.762l0.011-0.131l0.761,0.066c-5.09-0.458-11.147-0.896-13.188-1.072  c-20.461-1.762-25.399-5.944-28.163-10.03c-2.764-4.088-7.796-12.227-9.084-17.413c-1.287-5.186,2.694-11.035,3.615-12.455  c1.106-1.706,2.28-3.822,13.421-3.338c12.104,0.526,13.796,0.177,23.257,6.367c6.109,3.996,12.833,9.656,16.832,13.166  L90.138,41.979L90.138,41.979z M32.089,49.58l37.643,3.669c0,0-2.137-1.833-17.049-3.369C36.844,48.25,32.089,49.58,32.089,49.58  L32.089,49.58z M89.585,46.84c1.929,1.619,3.911,2.432,4.425,1.817c0.518-0.616-0.628-2.426-2.556-4.044  c-1.931-1.619-3.91-2.432-4.428-1.817C86.513,43.411,87.656,45.222,89.585,46.84L89.585,46.84z M22.927,32.355  c2.479,0.786,4.467,2.336,5.503,4.278l40.894,3.523l-0.726-6.034c-5.893-4.598-12.825-9.319-17.948-10.55  c-4.119-0.988-20.773-1.965-23.597,0.776c-1.051,1.018-2.758,4.28-3.336,5.669C23.404,30.77,23.129,31.553,22.927,32.355  L22.927,32.355z M9.892,26.312c0,0-2.103,5.547-2.637,7.346c-0.534,1.797,0.535,1.53,1.569,1.183  c1.035-0.348,2.932-0.938,4.654-3.941c0.854-1.489,2.375-4.067,3.917-6.887c1.167-2.133-3.03-0.979-4.898-0.42  C10.584,24.167,9.892,26.312,9.892,26.312L9.892,26.312z M76.56,72.175c-2.94-5.092-1.195-11.603,3.896-14.543  C85.55,54.691,92.06,56.437,95,61.528s1.197,11.604-3.899,14.544C86.01,79.013,79.5,77.267,76.56,72.175L76.56,72.175z   M78.777,70.893c2.233,3.865,7.176,5.193,11.043,2.961c3.869-2.233,5.192-7.179,2.962-11.045c-2.235-3.866-7.179-5.192-11.043-2.959  C77.868,62.081,76.547,67.026,78.777,70.893L78.777,70.893z M86.729,64.312l2.208-4.278c1.314,0.61,2.469,1.609,3.269,2.945  l-4.023,2.642c0.217,0.429,0.31,0.896,0.285,1.35l4.752,0.775c-0.182,1.472-0.797,2.882-1.787,4.021l-3.758-3.011  c-0.163,0.159-0.346,0.304-0.555,0.422c-0.206,0.119-0.421,0.209-0.641,0.269l0.729,4.758c-1.484,0.29-3.011,0.117-4.376-0.463  l1.702-4.499c-0.403-0.209-0.761-0.521-1.025-0.924l-4.299,2.162c-0.756-1.36-1.044-2.857-0.915-4.303l4.808,0.228  c0.073-0.459,0.265-0.895,0.562-1.259l-3.388-3.422c0.499-0.532,1.079-1.002,1.741-1.384c0.664-0.384,1.362-0.654,2.069-0.818  l1.271,4.646C85.822,64.095,86.296,64.147,86.729,64.312L86.729,64.312z M6.141,67.729c0,4.901,3.972,8.875,8.873,8.875  c4.9,0,8.873-3.974,8.873-8.875c0-4.899-3.972-8.871-8.873-8.871C10.113,58.858,6.141,62.83,6.141,67.729L6.141,67.729z   M3.33,67.729c0-6.451,5.231-11.683,11.684-11.683s11.683,5.231,11.683,11.683c0,6.454-5.23,11.686-11.683,11.686  S3.33,74.184,3.33,67.729L3.33,67.729z M17.309,65.84l4.446-2.854c0.916,1.303,1.464,2.884,1.492,4.592l-5.274,0.302  c-0.029,0.529-0.197,1.022-0.468,1.44l4.089,3.345c-0.979,1.302-2.336,2.304-3.908,2.842l-1.917-4.925  c-0.241,0.062-0.495,0.099-0.757,0.099c-0.262,0-0.516-0.036-0.757-0.099l-1.917,4.923c-1.571-0.538-2.927-1.539-3.905-2.84  l4.088-3.345c-0.272-0.418-0.439-0.911-0.469-1.44L6.78,67.577c0.028-1.707,0.575-3.288,1.492-4.592l4.443,2.854  c0.322-0.395,0.743-0.702,1.225-0.89l-1.343-5.109c0.764-0.235,1.575-0.36,2.417-0.36c0.84,0,1.651,0.125,2.413,0.36l-1.341,5.109  C16.567,65.138,16.988,65.445,17.309,65.84L17.309,65.84z"/>
</svg>