<svg xmlns="http://www.w3.org/2000/svg" xmlns:xlink="http://www.w3.org/1999/xlink" version="1.1" id="Layer_1" x="0px" y="0px" width="100px" height="100px" viewBox="0 0 100 100" enable-background="new 0 0 100 100" xml:space="preserve">
<path d="M29.155,81.814c1.299,0,2.358-1.056,2.358-2.357h-0.004v-7.992h20.832v8.323c0,1.296,1.058,2.351,2.357,2.351  c1.302,0,2.354-1.055,2.354-2.351v-8.323h20.835v8.319c0,1.3,1.054,2.354,2.354,2.354c1.3,0,2.354-1.055,2.354-2.354v-10.67  c0-0.622-0.254-1.227-0.689-1.667c-0.438-0.44-1.046-0.69-1.664-0.69H57.053v-7.576c0-1.3-1.053-2.354-2.354-2.354  c-1.3,0-2.357,1.054-2.357,2.354v7.576H29.155c-0.624,0-1.228,0.25-1.667,0.688c-0.441,0.44-0.688,1.048-0.688,1.67v10.343  C26.8,80.759,27.853,81.814,29.155,81.814z"/>
<path d="M80.116,84.552c-4.129,0-7.479,3.351-7.479,7.483s3.351,7.48,7.479,7.48c4.137,0,7.484-3.348,7.484-7.48  S84.253,84.552,80.116,84.552z"/>
<path d="M54.593,84.552c-4.129,0-7.48,3.351-7.48,7.483s3.351,7.48,7.48,7.48c4.135,0,7.483-3.348,7.483-7.48  S58.728,84.552,54.593,84.552z"/>
<path d="M29.076,84.552c-4.136,0-7.484,3.351-7.484,7.483s3.348,7.48,7.484,7.48c4.129,0,7.477-3.348,7.477-7.48  S33.205,84.552,29.076,84.552z"/>
<path d="M54.551,21.787c6.071,0,10.991-4.918,10.991-10.989S60.622-0.19,54.551-0.19c-6.065,0-10.985,4.918-10.985,10.989  S48.485,21.787,54.551,21.787z"/>
<path d="M63.988,20.94c-2.25,2.703-5.643,4.423-9.438,4.423c-3.789,0-7.177-1.72-9.427-4.423c-3.743,3.36-6.159,4.918-6.159,10.896  c0,10.162,1.403,22.151,15.586,22.151c14.188,0,15.591-11.989,15.591-22.151C70.142,25.859,67.726,24.301,63.988,20.94z   M54.545,49.144c-3.024,0-3.113-14.932-3.113-15.661c0-0.726,2.188-1.743,2.188-1.743s-2.158-1.54-2.158-2.338  c0-0.795,2.286-3.009,3.187-3.009c0.891,0,2.967,2.254,2.967,3.009c0,0.759-2.032,2.374-2.032,2.374s2.092,0.981,2.092,1.707  C57.675,34.212,57.571,49.144,54.545,49.144z"/>
</svg>