<svg xmlns="http://www.w3.org/2000/svg" xmlns:xlink="http://www.w3.org/1999/xlink" version="1.1" id="&#1057;&#1083;&#1086;&#1081;_1" x="0px" y="0px" width="100px" height="100px" viewBox="0 0 100 100" enable-background="new 0 0 100 100" xml:space="preserve">
<path d="M28.75,52.5C15.654,52.5,5,41.846,5,28.75S15.654,5,28.75,5S52.5,15.654,52.5,28.75S41.846,52.5,28.75,52.5z M28.75,10  C18.411,10,10,18.411,10,28.75S18.411,47.5,28.75,47.5S47.5,39.089,47.5,28.75S39.089,10,28.75,10z"/>
<path d="M28.75,42.5c-1.381,0-2.5-1.119-2.5-2.5s1.119-2.5,2.5-2.5c4.825,0,8.75-3.925,8.75-8.75c0-1.381,1.119-2.5,2.5-2.5  s2.5,1.119,2.5,2.5C42.5,36.332,36.332,42.5,28.75,42.5z"/>
<circle cx="20" cy="27.5" r="2.5"/>
<circle cx="27.5" cy="20" r="2.5"/>
<path d="M47.5,28.75C47.5,15.654,58.154,5,71.25,5S95,15.654,95,28.75S84.346,52.5,71.25,52.5S47.5,41.846,47.5,28.75z M90,28.75  C90,18.411,81.589,10,71.25,10S52.5,18.411,52.5,28.75S60.911,47.5,71.25,47.5S90,39.089,90,28.75z"/>
<path d="M57.5,28.75c0-1.381,1.119-2.5,2.5-2.5s2.5,1.119,2.5,2.5c0,4.824,3.926,8.75,8.75,8.75c1.381,0,2.5,1.119,2.5,2.5  s-1.119,2.5-2.5,2.5C63.668,42.5,57.5,36.332,57.5,28.75z"/>
<circle cx="72.5" cy="20" r="2.5"/>
<circle cx="80" cy="27.5" r="2.5"/>
<path d="M71.249,47.5c13.096,0,23.75,10.655,23.75,23.75s-10.654,23.75-23.75,23.75s-23.75-10.654-23.75-23.75  S58.153,47.5,71.249,47.5z M71.249,90.001c10.339,0,18.75-8.411,18.75-18.75s-8.411-18.75-18.75-18.75s-18.75,8.411-18.75,18.75  S60.91,90.001,71.249,90.001z"/>
<path d="M71.249,57.501c1.381,0,2.5,1.119,2.5,2.5s-1.119,2.5-2.5,2.5c-4.824,0-8.75,3.926-8.75,8.75c0,1.381-1.119,2.5-2.5,2.5  s-2.5-1.119-2.5-2.5C57.499,63.669,63.667,57.501,71.249,57.501z"/>
<circle cx="79.999" cy="72.501" r="2.5"/>
<circle cx="72.499" cy="80.001" r="2.5"/>
<path d="M52.5,71.249c0,13.096-10.655,23.75-23.75,23.75S5,84.345,5,71.249S15.654,47.5,28.75,47.5S52.5,58.153,52.5,71.249z   M10,71.249c0,10.339,8.411,18.75,18.75,18.75s18.75-8.411,18.75-18.75s-8.411-18.75-18.75-18.75S10,60.91,10,71.249z"/>
<path d="M42.5,71.249c0,1.381-1.119,2.5-2.5,2.5s-2.5-1.119-2.5-2.5c0-4.824-3.926-8.75-8.75-8.75c-1.381,0-2.5-1.119-2.5-2.5  s1.119-2.5,2.5-2.5C36.332,57.499,42.5,63.667,42.5,71.249z"/>
<circle cx="27.5" cy="79.999" r="2.5"/>
<circle cx="20" cy="72.499" r="2.5"/>
</svg>