<svg xmlns="http://www.w3.org/2000/svg" xmlns:xlink="http://www.w3.org/1999/xlink" version="1.1" id="Your_Icon" x="0px" y="0px" width="100px" height="100px" viewBox="0 0 100 100" enable-background="new 0 0 100 100" xml:space="preserve" class='marker'>
<g>
	<path class="marker-surrond" d="M50,76.948c-1.071,0-2.068-0.544-2.647-1.445L27.969,45.346c-2.719-4.224-4.155-9.12-4.155-14.16   C23.814,16.747,35.561,5,50,5s26.186,11.747,26.186,26.186c0,5.043-1.438,9.941-4.158,14.163L52.647,75.503   C52.068,76.404,51.071,76.948,50,76.948z M50,11.294c-10.969,0-19.892,8.924-19.892,19.892c0,3.83,1.09,7.548,3.152,10.751   L50,67.981l16.737-26.038c2.065-3.206,3.156-6.925,3.156-10.757C69.892,20.218,60.969,11.294,50,11.294z"/>
</g>
<g>
	<path class="marker-circle" d="M50,41.38c-5.602,0-10.159-4.557-10.159-10.158S44.398,21.063,50,21.063c5.601,0,10.158,4.557,10.158,10.158   S55.602,41.38,50,41.38z M50,25.259c-3.288,0-5.963,2.675-5.963,5.963s2.675,5.963,5.963,5.963s5.963-2.675,5.963-5.963   S53.288,25.259,50,25.259z"/>
</g>
<g>
	<path class="marker-bottom" d="M50,95c-19.237,0-33.743-7.24-33.743-16.841c0-4.558,3.291-8.752,9.268-11.811c1.547-0.792,3.443-0.18,4.235,1.368   c0.792,1.547,0.18,3.443-1.368,4.235c-3.712,1.9-5.841,4.163-5.841,6.208c0,4.404,10.442,10.547,27.449,10.547   c17.006,0,27.448-6.143,27.448-10.547c0-2.046-2.13-4.31-5.845-6.21c-1.547-0.792-2.159-2.688-1.368-4.235   c0.792-1.547,2.69-2.159,4.235-1.368c5.979,3.06,9.272,7.255,9.272,11.814C83.743,87.76,69.237,95,50,95z"/>
</g>
</svg>