<svg xmlns="http://www.w3.org/2000/svg" xmlns:xlink="http://www.w3.org/1999/xlink" version="1.1" id="Your_Icon" x="0px" y="0px" width="100px" height="100px" viewBox="0 0 100 100" enable-background="new 0 0 100 100" xml:space="preserve">
<path fill="#FFFFFF" d="M14.645,14.645c-4.591,4.591-8.195,9.938-10.713,15.892C1.322,36.704,0,43.252,0,50s1.322,13.296,3.932,19.464  c2.518,5.954,6.122,11.301,10.713,15.892c1.391,1.391,2.877,2.712,4.42,3.93l5.121-6.562c-7.118-5.629-12.281-13.515-14.549-22.231  c-0.048-0.247-0.412-2.313,0.567-3.59c0.402-0.525,0.973-0.842,1.696-0.943c-0.153-6.321,1.66-10.765,3.219-13.389  c0.535-0.898,1.125-1.738,1.76-2.504c-0.169,0.01-0.337,0.015-0.5,0.015c-2.722,0-4.05-1.313-4.6-2.096  c-0.706-1.006-0.943-2.265-0.604-3.207l0.092-0.227c0.619-1.415,2.063-2.566,3.221-3.491c0.371-0.297,0.721-0.575,0.986-0.82  c1.058-0.973,2.9-3.42,3.278-4.808c0.401-1.471,4.174-7.011,4.334-7.246l0.046-0.051c0.276-0.233,0.557-0.462,0.839-0.688  l-5.022-6.646C17.454,11.991,16.007,13.282,14.645,14.645z"/>
<path fill="#FFFFFF" d="M75.175,83.218c-1.104,0.839-2.247,1.623-3.403,2.334c-1.248,0.752-5.559,3.202-8.656,3.202  c-0.925,0-1.676-0.22-2.233-0.653c-0.369-0.287-0.642-0.664-0.813-1.123c-3.189,1.271-6.568,1.916-10.046,1.916  c-1.427,0-2.862-0.109-4.265-0.326c-2.833-0.437-4.886-1.183-5.832-1.575c-0.172,0.452-0.442,0.824-0.807,1.108  c-0.559,0.434-1.31,0.653-2.234,0.653c-3.097,0-7.407-2.45-8.654-3.201c-1.065-0.654-2.115-1.367-3.127-2.122l-5.12,6.562  c3.252,2.446,6.802,4.49,10.553,6.076C36.704,98.678,43.252,100,50,100s13.296-1.322,19.464-3.932  c3.861-1.633,7.505-3.748,10.834-6.289L75.175,83.218z"/>
<path fill="#FFFFFF" d="M16.1,43.194c-1.485,2.509-3.209,6.77-3.036,12.865c13.652,3.205,23.982,21.419,24.086,21.604  c0.122,0.192,3.127,4.938,2.999,8.162c0.676,0.292,2.814,1.141,5.813,1.601c1.334,0.204,2.7,0.309,4.061,0.309l0,0  c3.414,0,6.721-0.646,9.833-1.919c-0.122-3.224,2.877-7.961,3.007-8.165c0.096-0.171,10.412-18.361,24.049-21.585  c0.305-6.391-1.465-10.837-3.013-13.451c-0.573-0.97-1.222-1.871-1.927-2.681c-0.117-0.02-0.236-0.041-0.357-0.065  c-4.184-0.847-9.095-2.06-11.575-2.688c0.435,0.369,0.851,0.752,1.243,1.144c3.481,3.481,3.249,8.235,2.479,12.855  c-0.185,1.106-1.281,6.902-4.771,12.289c-1.979,3.055-4.39,5.479-7.167,7.204c-3.408,2.119-7.386,3.193-11.821,3.193  c-4.437,0-8.415-1.074-11.822-3.193c-2.777-1.726-5.188-4.149-7.167-7.204c-3.486-5.381-4.586-11.182-4.771-12.289  c-0.77-4.619-1.002-9.373,2.479-12.855c0.393-0.392,0.809-0.774,1.245-1.144c-2.425,0.613-7.187,1.789-11.289,2.629  C18.007,40.49,17.032,41.618,16.1,43.194z"/>
<path fill="#FFFFFF" d="M72.617,50.989c0.719-4.313,0.955-8.734-2.155-11.845c-0.144-0.144-0.29-0.285-0.438-0.425  c-0.148-0.139-0.283-0.262-0.42-0.384l-0.1-0.087c-0.108-0.096-0.218-0.189-0.329-0.283l-0.141-0.117  c-0.097-0.081-0.195-0.161-0.295-0.238l-0.938-0.705c-0.132-0.092-0.265-0.184-0.398-0.273l-0.17-0.114  c-4.364-2.87-10.001-4.265-17.232-4.265c-8.157,0-14.33,1.787-18.871,5.463l-0.072,0.06c-0.109,0.089-0.218,0.179-0.324,0.27  l-0.109,0.094c-0.1,0.087-0.199,0.174-0.298,0.263l-0.075,0.069c-0.139,0.126-0.236,0.215-0.332,0.306l-0.229-0.128l0.174,0.182  c-0.108,0.104-0.218,0.208-0.324,0.314c-3.11,3.11-2.873,7.531-2.155,11.845c0.178,1.066,1.234,6.652,4.601,11.85  c4.242,6.548,10.303,9.868,18.016,9.868h0.002c7.712,0,13.773-3.32,18.015-9.868C71.38,57.647,72.439,52.057,72.617,50.989z   M49.998,56.985c-3.828,0-6.942-3.114-6.942-6.942s3.114-6.942,6.942-6.942c3.829,0,6.943,3.114,6.943,6.942  S53.827,56.985,49.998,56.985z"/>
<path fill="#FFFFFF" d="M49.998,44.268c-3.184,0-5.775,2.591-5.775,5.775s2.592,5.775,5.775,5.775c3.185,0,5.775-2.591,5.775-5.775  S53.183,44.268,49.998,44.268z"/>
<path fill="#FFFFFF" d="M69.464,3.932C63.296,1.322,56.748,0,50,0S36.704,1.322,30.536,3.932c-3.796,1.605-7.384,3.679-10.668,6.164l5.018,6.641  C32.176,11.216,40.854,8.3,50,8.3c9.146,0,17.737,2.849,24.858,8.239l4.991-6.656C76.646,7.493,73.153,5.491,69.464,3.932z"/>
<path fill="#FFFFFF" d="M85.355,85.355c4.59-4.591,8.195-9.938,10.713-15.892C98.678,63.296,100,56.748,100,50s-1.322-13.296-3.932-19.464  c-2.518-5.954-6.123-11.301-10.713-15.892c-1.436-1.436-2.977-2.8-4.584-4.058l-5.001,6.658c0.364,0.287,0.75,0.598,1.097,0.891  l0.046,0.051c0.16,0.234,3.933,5.774,4.334,7.246c0.378,1.388,2.221,3.835,3.278,4.808c0.266,0.245,0.615,0.523,0.986,0.82  c1.158,0.925,2.602,2.076,3.218,3.483l0.095,0.234c0.34,0.941,0.103,2.2-0.604,3.206c-0.55,0.783-1.878,2.097-4.6,2.097H83.62  c-0.011,0-0.022,0-0.033,0c0.459,0.602,0.892,1.243,1.288,1.91c1.62,2.727,3.479,7.353,3.199,13.966  c0.732,0.097,1.31,0.412,1.717,0.939c0.987,1.279,0.62,3.349,0.575,3.58c-2.239,8.612-7.305,16.421-14.275,22.028l5.12,6.561  C82.656,87.908,84.049,86.661,85.355,85.355z"/>
</svg>